<?xml version="1.0" standalone="no"?>
<!DOCTYPE svg PUBLIC "-//W3C//DTD SVG 20010904//EN"
 "http://www.w3.org/TR/2001/REC-SVG-20010904/DTD/svg10.dtd">
<svg version="1.0" xmlns="http://www.w3.org/2000/svg"
 width="4473.000000pt" height="4273.000000pt" viewBox="0 0 4473.000000 4273.000000"
 preserveAspectRatio="xMidYMid meet">

<g transform="translate(0.000000,4273.000000) scale(0.100000,-0.100000)"
fill="#000000" stroke="none">
<path d="M33187 41405 c-626 -172 -1319 -1461 -2042 -3800 -81 -261 -245 -825
-295 -1012 l-22 -83 -67 -20 c-36 -11 -788 -247 -1671 -524 l-1605 -504 -6 52
c-4 28 -9 132 -12 231 -18 622 -178 978 -440 976 -184 -1 -355 -150 -567 -496
-136 -221 -351 -711 -495 -1130 -21 -60 -41 -113 -45 -118 -5 -6 -2632 -834
-2706 -853 -20 -5 -21 -1 -27 143 -16 343 -63 596 -145 763 -47 97 -136 190
-206 213 -330 112 -691 -358 -1086 -1415 -37 -100 -74 -184 -81 -188 -8 -4
-973 -308 -2145 -675 l-2131 -668 -47 -221 c-26 -122 -69 -325 -97 -453 -27
-127 -49 -238 -49 -247 0 -20 85 -21 515 -6 160 5 506 14 770 20 264 6 548 12
630 15 151 5 257 7 995 25 223 5 479 12 570 15 91 2 266 7 390 10 124 3 299 7
390 10 91 3 284 7 430 10 146 4 375 10 510 15 135 5 337 9 449 10 112 0 207 2
210 4 3 2 159 6 346 10 187 3 381 9 430 11 50 3 374 12 720 20 679 16 1329 32
1625 40 102 3 367 10 590 15 397 10 579 15 950 25 102 3 304 7 450 10 146 3
303 8 350 10 47 2 225 7 395 10 171 4 425 10 565 15 140 4 257 7 259 5 2 -2
-18 -118 -43 -257 -54 -296 -57 -313 -135 -778 -121 -714 -181 -1112 -301
-1975 -95 -687 -209 -1749 -246 -2290 -3 -55 -8 -102 -10 -104 -3 -4 -187 -62
-2719 -856 -940 -294 -1713 -539 -1716 -543 -3 -4 -21 -77 -38 -162 -18 -85
-62 -289 -98 -453 -36 -163 -62 -304 -59 -313 5 -13 18 -15 74 -10 37 3 182 8
322 11 338 7 636 14 850 20 96 3 443 12 770 20 327 8 683 17 790 20 107 3 465
12 795 20 330 8 696 18 813 21 155 5 212 4 213 -5 1 -6 2 -14 3 -18 1 -5 6
-42 10 -83 15 -146 67 -431 102 -556 164 -600 406 -719 765 -377 142 135 292
334 455 602 49 81 88 135 96 133 12 -3 135 -61 448 -210 63 -30 151 -71 195
-92 44 -21 130 -61 190 -90 61 -29 146 -69 190 -90 44 -21 134 -64 200 -95 66
-32 208 -99 315 -150 107 -51 510 -242 895 -425 385 -183 931 -442 1214 -577
283 -134 521 -241 528 -239 7 3 13 12 13 21 0 15 45 230 146 699 36 169 42
212 32 222 -7 6 -260 229 -563 495 -302 266 -869 765 -1260 1108 -390 344
-917 807 -1170 1030 -253 222 -466 409 -474 416 -11 11 -10 22 7 72 191 549
256 740 345 1018 352 1097 661 2189 1007 3570 82 325 152 589 157 588 4 -1 67
-29 138 -63 72 -35 162 -77 200 -95 39 -18 124 -58 190 -90 399 -191 548 -261
610 -290 39 -18 124 -58 190 -90 403 -192 548 -261 610 -290 39 -18 124 -58
190 -90 192 -92 722 -344 820 -390 106 -50 602 -285 900 -428 187 -89 843
-400 1080 -512 50 -23 324 -154 610 -290 286 -136 552 -262 590 -280 75 -35
214 -101 390 -185 61 -29 146 -69 190 -90 44 -20 181 -86 305 -145 124 -59
268 -128 320 -153 229 -108 281 -133 390 -184 106 -51 195 -93 680 -323 96
-46 234 -111 305 -145 72 -34 213 -102 315 -150 102 -48 247 -117 324 -154 76
-36 139 -66 141 -66 1 0 83 -39 181 -86 99 -48 258 -123 354 -169 96 -45 315
-149 485 -230 171 -81 342 -162 380 -180 39 -18 150 -72 249 -119 98 -47 182
-86 186 -86 9 0 8 -2 120 525 44 209 82 385 84 391 2 6 1 15 -2 21 -4 5 -610
540 -1347 1188 -2234 1966 -2020 1774 -2019 1809 1 17 6 126 13 241 51 950
-54 1497 -313 1633 -42 22 -64 27 -127 27 -65 -1 -85 -5 -144 -34 -169 -83
-360 -327 -540 -688 l-80 -162 -915 805 c-503 443 -986 869 -1074 946 l-158
141 6 76 c30 388 35 496 31 821 -4 377 -18 518 -72 735 -55 222 -140 356 -261
412 -76 35 -182 31 -267 -12 -84 -42 -241 -200 -331 -335 -106 -157 -241 -410
-320 -598 -9 -23 -14 -20 -144 95 -268 235 -1575 1386 -2025 1782 -253 222
-464 407 -468 411 -5 5 0 68 12 141 58 378 146 1076 186 1474 3 28 12 115 20
195 8 80 19 213 25 295 6 83 13 164 15 180 2 17 7 91 10 165 4 74 8 140 10
147 10 32 20 482 19 853 -2 518 -23 797 -85 1135 -104 563 -310 892 -597 954
-69 14 -184 13 -245 -4z"/>
</g>
</svg>
